# Made in Blockbench 4.11.2
mtllib stairs.mtl

o cuboid
v -0.1875 0.375 -0.1875
v -0.1875 1.1875 -1.1875
v -0.1875 0 -0.1875
v -0.1875 0.8125 -1.1875
v -0.25 0.375 -0.1875
v -0.25 1.1875 -1.1875
v -0.25 0 -0.1875
v -0.25 0.8125 -1.1875
vt 0 0.671875
vt 0.09375 0.671875
vt 0.09375 1
vt 0 1
vt 0.109375 1
vt 0.109375 0.671875
vt 0.203125 0.671875
vt 0.203125 1
vt 0.21875 0.5250143143960141
vt 0.296875 0.5841323729986203
vt 0.296875 0.90625
vt 0.21875 0.8471319413973939
vt 0.6046803428019929 1
vt 0.2825627158006132 1
vt 0.22344465719800705 0.921875
vt 0.5455622841993868 0.921875
vt 0.09375 0.90625
vt 0.09375 1
vt 0 1
vt 0 0.90625
vt 0.09375 0.90625
vt 0.09375 1
vt 0 1
vt 0 0.90625
vn 0 0.7761140001162655 0.6305926250944657
vn 0 -0.7761140001162655 -0.6305926250944657
vn -1 0 0
vn 1 0 0
vn 0 0 1
vn 0 0 -1
usemtl m_0fa5fbce-1776-845c-dc68-37e1c97d1763
f 5/1/1 1/2/1 2/3/1 6/4/1
f 4/5/2 3/6/2 7/7/2 8/8/2
f 7/9/3 5/10/3 6/11/3 8/12/3
f 2/13/4 1/14/4 3/15/4 4/16/4
f 3/17/5 1/18/5 5/19/5 7/20/5
f 8/21/6 6/22/6 2/23/6 4/24/6
o plane
v 0.1875000000000007 1.2499999999999998 -1.5624999999999993
v 0.1874999999999993 1.2499999999999998 -1.1874999999999993
v -0.1874999999999993 1.2500000000000002 -1.5625000000000007
v -0.1875000000000007 1.2500000000000002 -1.1875000000000007
v 0.18750000000000064 1.1874999999999998 -1.5624999999999993
v 0.18749999999999925 1.1874999999999998 -1.1874999999999993
v -0.18750000000000075 1.1875000000000002 -1.1875000000000007
v -0.18749999999999936 1.1875000000000002 -1.5625000000000007
vt 0.375 0.625
vt 0.375 1
vt 0 1
vt 0 0.625
vt 0.375 0.6875
vt 0 0.6875
vt 0 0.625
vt 0.375 0.625
vt 0.375 1
vt 0 1
vt 0 0.9375
vt 0.375 0.9375
vt 0.375 0.6875
vt 0 0.6875
vt 0 0.625
vt 0.375 0.625
vt 0.375 0.6875
vt 0 0.6875
vt 0 0.625
vt 0.375 0.625
vt 0 0.625
vt 0.375 0.625
vt 0.375 1
vt 0 1
vn -8.138497939389845e-16 -1 -1.224646799147383e-16
vn 1 -8.138497939389851e-16 3.6637359812630166e-15
vn -3.6637359812630166e-15 -1.224646799147353e-16 1
vn -1 8.138497939389851e-16 -3.6637359812630166e-15
vn 3.6637359812630166e-15 1.224646799147353e-16 -1
vn 8.138497939389845e-16 1 1.224646799147383e-16
usemtl m_86b9ec15-5464-05f6-56b1-268f1748de20
f 13/25/7 14/26/7 15/27/7 16/28/7
f 14/29/8 13/30/8 9/31/8 10/32/8
f 15/33/9 14/34/9 10/35/9 12/36/9
f 16/37/10 15/38/10 12/39/10 11/40/10
f 13/41/11 16/42/11 11/43/11 9/44/11
f 9/45/12 11/46/12 12/47/12 10/48/12
o cuboid
v 0.25 0.375 -0.1875
v 0.25 1.1875 -1.1875
v 0.25 0 -0.1875
v 0.25 0.8125 -1.1875
v 0.1875 0.375 -0.1875
v 0.1875 1.1875 -1.1875
v 0.1875 0 -0.1875
v 0.1875 0.8125 -1.1875
vt 0 0.671875
vt 0.09375 0.671875
vt 0.09375 1
vt 0 1
vt 0.109375 1
vt 0.109375 0.671875
vt 0.203125 0.671875
vt 0.203125 1
vt 0.21875 0.5250143143960141
vt 0.296875 0.5841323729986203
vt 0.296875 0.90625
vt 0.21875 0.8471319413973939
vt 0.6046803428019929 1
vt 0.2825627158006132 1
vt 0.22344465719800705 0.921875
vt 0.5455622841993868 0.921875
vt 0.09375 0.90625
vt 0.09375 1
vt 0 1
vt 0 0.90625
vt 0.09375 0.90625
vt 0.09375 1
vt 0 1
vt 0 0.90625
vn 0 0.7761140001162655 0.6305926250944657
vn 0 -0.7761140001162655 -0.6305926250944657
vn -1 0 0
vn 1 0 0
vn 0 0 1
vn 0 0 -1
usemtl m_0fa5fbce-1776-845c-dc68-37e1c97d1763
f 21/49/13 17/50/13 18/51/13 22/52/13
f 20/53/14 19/54/14 23/55/14 24/56/14
f 23/57/15 21/58/15 22/59/15 24/60/15
f 18/61/16 17/62/16 19/63/16 20/64/16
f 19/65/17 17/66/17 21/67/17 23/68/17
f 24/69/18 22/70/18 18/71/18 20/72/18
o cuboid
v 0.1875 0.4375 -0.1875
v 0.1875 1.25 -1.1875
v 0.1875 0.375 -0.1875
v 0.1875 1.1875 -1.1875
v -0.1875 0.4375 -0.1875
v -0.1875 1.25 -1.1875
v -0.1875 0.375 -0.1875
v -0.1875 1.1875 -1.1875
vt 0 0.671875
vt 0.09375 0.671875
vt 0.09375 1
vt 0 1
vt 0.109375 1
vt 0.109375 0.671875
vt 0.203125 0.671875
vt 0.203125 1
vt 0.22499999999999995 0.825014314396014
vt 0.24218750000000006 0.8419448729986202
vt 0.23749999999999985 0.8546875
vt 0.21875 0.8471319413973939
vt 0.46093034280199197 1
vt 0.2825627158006132 1
vt 0.28750715719800746 0.9875
vt 0.4611872841993866 0.9875
vt 0.09375 0.90625
vt 0.09375 1
vt 0 1
vt 0 0.90625
vt 0.09375 0.90625
vt 0.09375 1
vt 0 1
vt 0 0.90625
vn 0 0.7761140001162655 0.6305926250944658
vn 0 -0.7761140001162655 -0.6305926250944658
vn -1 0 0
vn 1 0 0
vn 0 0 1
vn 0 0 -1
usemtl m_0fa5fbce-1776-845c-dc68-37e1c97d1763
f 29/73/19 25/74/19 26/75/19 30/76/19
f 28/77/20 27/78/20 31/79/20 32/80/20
f 31/81/21 29/82/21 30/83/21 32/84/21
f 26/85/22 25/86/22 27/87/22 28/88/22
f 27/89/23 25/90/23 29/91/23 31/92/23
f 32/93/24 30/94/24 26/95/24 28/96/24
o cuboid
v 0.1875 0 -0.1875
v 0.1875 0.8125 -1.1875
v 0.1875 -0.0625 -0.1875
v 0.1875 0.75 -1.1875
v -0.1875 0 -0.1875
v -0.1875 0.8125 -1.1875
v -0.1875 -0.0625 -0.1875
v -0.1875 0.75 -1.1875
vt 0 0.671875
vt 0.09375 0.671875
vt 0.09375 1
vt 0 1
vt 0.109375 1
vt 0.109375 0.671875
vt 0.203125 0.671875
vt 0.203125 1
vt 0.2640624999999999 0.8672018143960143
vt 0.28750000000000003 0.8622573729986205
vt 0.290625 0.8984375
vt 0.2687499999999999 0.8877569413973937
vt 0.12030534280199316 0.9703124999999999
vt 0.12318771580061322 0.996875
vt 0.11250715719800702 0.996875
vt 0.11118728419938678 0.971875
vt 0.09375 0.90625
vt 0.09375 1
vt 0 1
vt 0 0.90625
vt 0.09375 0.90625
vt 0.09375 1
vt 0 1
vt 0 0.90625
vn 0 0.7761140001162655 0.6305926250944658
vn 0 -0.7761140001162655 -0.6305926250944658
vn -1 0 0
vn 1 0 0
vn 0 0 1
vn 0 0 -1
usemtl m_0fa5fbce-1776-845c-dc68-37e1c97d1763
f 37/97/25 33/98/25 34/99/25 38/100/25
f 36/101/26 35/102/26 39/103/26 40/104/26
f 39/105/27 37/106/27 38/107/27 40/108/27
f 34/109/28 33/110/28 35/111/28 36/112/28
f 35/113/29 33/114/29 37/115/29 39/116/29
f 40/117/30 38/118/30 34/119/30 36/120/30
o plane
v 0.1875000000000007 0.8124999999999999 -1.5624999999999993
v 0.1874999999999993 0.8124999999999998 -1.1874999999999993
v -0.1874999999999993 0.8125000000000002 -1.5625000000000007
v -0.1875000000000007 0.8125000000000001 -1.1875000000000007
v 0.18750000000000064 0.7499999999999999 -1.5624999999999993
v 0.18749999999999925 0.7499999999999998 -1.1874999999999993
v -0.18750000000000075 0.7500000000000001 -1.1875000000000007
v -0.18749999999999936 0.7500000000000002 -1.5625000000000007
vt 0.375 0.625
vt 0.375 1
vt 0 1
vt 0 0.625
vt 0.375 0.6875
vt 0 0.6875
vt 0 0.625
vt 0.375 0.625
vt 0.375 1
vt 0 1
vt 0 0.9375
vt 0.375 0.9375
vt 0.375 0.6875
vt 0 0.6875
vt 0 0.625
vt 0.375 0.625
vt 0.375 0.6875
vt 0 0.6875
vt 0 0.625
vt 0.375 0.625
vt 0 0.625
vt 0.375 0.625
vt 0.375 1
vt 0 1
vn -8.138497939389845e-16 -1 -1.224646799147383e-16
vn 1 -8.138497939389851e-16 3.6637359812630166e-15
vn -3.6637359812630166e-15 -1.224646799147353e-16 1
vn -1 8.138497939389851e-16 -3.6637359812630166e-15
vn 3.6637359812630166e-15 1.224646799147353e-16 -1
vn 8.138497939389845e-16 1 1.224646799147383e-16
usemtl m_86b9ec15-5464-05f6-56b1-268f1748de20
f 45/121/31 46/122/31 47/123/31 48/124/31
f 46/125/32 45/126/32 41/127/32 42/128/32
f 47/129/33 46/130/33 42/131/33 44/132/33
f 48/133/34 47/134/34 44/135/34 43/136/34
f 45/137/35 48/138/35 43/139/35 41/140/35
f 41/141/36 43/142/36 44/143/36 42/144/36
o plane
v -0.18750000000000003 -1.7555896384757248e-16 0.18749999999999997
v -0.18749999999999997 -1.2963470887954675e-16 -0.18750000000000003
v 0.18749999999999997 1.2963470887954675e-16 0.18750000000000003
v 0.18750000000000003 1.7555896384757248e-16 -0.18749999999999997
v -0.18749999999999997 -0.06250000000000018 0.18749999999999997
v -0.18749999999999992 -0.06250000000000012 -0.18750000000000003
v 0.18750000000000008 -0.062499999999999827 -0.18749999999999997
v 0.18750000000000003 -0.06249999999999987 0.18750000000000003
vt 0.375 0.625
vt 0.375 1
vt 0 1
vt 0 0.625
vt 0.375 0.6875
vt 0 0.6875
vt 0 0.625
vt 0.375 0.625
vt 0.375 1
vt 0 1
vt 0 0.9375
vt 0.375 0.9375
vt 0.375 0.6875
vt 0 0.6875
vt 0 0.625
vt 0.375 0.625
vt 0.375 0.6875
vt 0 0.6875
vt 0 0.625
vt 0.375 0.625
vt 0 0.625
vt 0.375 0.625
vt 0.375 1
vt 0 1
vn 8.138497939389846e-16 -1 -1.2246467991473522e-16
vn -1 -8.138497939389846e-16 -1.2246467991473542e-16
vn 1.2246467991473532e-16 1.2246467991473532e-16 -1
vn 1 8.138497939389846e-16 1.2246467991473542e-16
vn -1.2246467991473532e-16 -1.2246467991473532e-16 1
vn -8.138497939389846e-16 1 1.2246467991473522e-16
usemtl m_86b9ec15-5464-05f6-56b1-268f1748de20
f 53/145/37 54/146/37 55/147/37 56/148/37
f 54/149/38 53/150/38 49/151/38 50/152/38
f 55/153/39 54/154/39 50/155/39 52/156/39
f 56/157/40 55/158/40 52/159/40 51/160/40
f 53/161/41 56/162/41 51/163/41 49/164/41
f 49/165/42 51/166/42 52/167/42 50/168/42
o plane
v -0.18750000000000003 0.43749999999999983 0.18749999999999997
v -0.18749999999999997 0.4374999999999999 -0.18750000000000003
v 0.18749999999999997 0.4375000000000001 0.18750000000000003
v 0.18750000000000003 0.43750000000000017 -0.18749999999999997
v -0.18749999999999997 0.37499999999999983 0.18749999999999997
v -0.18749999999999992 0.3749999999999999 -0.18750000000000003
v 0.18750000000000008 0.37500000000000017 -0.18749999999999997
v 0.18750000000000003 0.3750000000000001 0.18750000000000003
vt 0.375 0.625
vt 0.375 1
vt 0 1
vt 0 0.625
vt 0.375 0.6875
vt 0 0.6875
vt 0 0.625
vt 0.375 0.625
vt 0.375 1
vt 0 1
vt 0 0.9375
vt 0.375 0.9375
vt 0.375 0.6875
vt 0 0.6875
vt 0 0.625
vt 0.375 0.625
vt 0.375 0.6875
vt 0 0.6875
vt 0 0.625
vt 0.375 0.625
vt 0 0.625
vt 0.375 0.625
vt 0.375 1
vt 0 1
vn 8.138497939389846e-16 -1 -1.2246467991473522e-16
vn -1 -8.138497939389846e-16 -1.2246467991473542e-16
vn 1.2246467991473532e-16 1.2246467991473532e-16 -1
vn 1 8.138497939389846e-16 1.2246467991473542e-16
vn -1.2246467991473532e-16 -1.2246467991473532e-16 1
vn -8.138497939389846e-16 1 1.2246467991473522e-16
usemtl m_86b9ec15-5464-05f6-56b1-268f1748de20
f 61/169/43 62/170/43 63/171/43 64/172/43
f 62/173/44 61/174/44 57/175/44 58/176/44
f 63/177/45 62/178/45 58/179/45 60/180/45
f 64/181/46 63/182/46 60/183/46 59/184/46
f 61/185/47 64/186/47 59/187/47 57/188/47
f 57/189/48 59/190/48 60/191/48 58/192/48
o plane
v 0.18749999999999994 -2.7755575615628914e-17 0.18749999999999997
v 0.18749999999999997 2.7755575615628914e-17 -0.18750000000000003
v 0.18750000000000003 0.375 0.18750000000000003
v 0.18750000000000006 0.375 -0.18749999999999997
v 0.24999999999999994 -2.7755575615628914e-17 0.18749999999999997
v 0.24999999999999997 2.7755575615628914e-17 -0.18750000000000003
v 0.25000000000000006 0.375 -0.18749999999999997
v 0.25 0.375 0.18750000000000003
vt 0.375 0.625
vt 0.375 1
vt 0 1
vt 0 0.625
vt 0.375 0.6875
vt 0 0.6875
vt 0 0.625
vt 0.375 0.625
vt 0.375 1
vt 0 1
vt 0 0.9375
vt 0.375 0.9375
vt 0.375 0.6875
vt 0 0.6875
vt 0 0.625
vt 0.375 0.625
vt 0.375 0.6875
vt 0 0.6875
vt 0 0.625
vt 0.375 0.625
vt 0 0.625
vt 0.375 0.625
vt 0.375 1
vt 0 1
vn 1 -2.220446049250313e-16 1.2246467991473527e-16
vn -2.2204460492503128e-16 -1 -1.2246467991473535e-16
vn 1.224646799147353e-16 1.2246467991473532e-16 -1
vn 2.2204460492503128e-16 1 1.2246467991473535e-16
vn -1.224646799147353e-16 -1.2246467991473532e-16 1
vn -1 2.220446049250313e-16 -1.2246467991473527e-16
usemtl m_86b9ec15-5464-05f6-56b1-268f1748de20
f 69/193/49 70/194/49 71/195/49 72/196/49
f 70/197/50 69/198/50 65/199/50 66/200/50
f 71/201/51 70/202/51 66/203/51 68/204/51
f 72/205/52 71/206/52 68/207/52 67/208/52
f 69/209/53 72/210/53 67/211/53 65/212/53
f 65/213/54 67/214/54 68/215/54 66/216/54
o plane
v -0.25000000000000006 -2.7755575615628914e-17 0.18749999999999997
v -0.25 2.7755575615628914e-17 -0.18750000000000003
v -0.24999999999999997 0.375 0.18750000000000003
v -0.24999999999999994 0.375 -0.18749999999999997
v -0.18750000000000006 -2.7755575615628914e-17 0.18749999999999997
v -0.18750000000000003 2.7755575615628914e-17 -0.18750000000000003
v -0.18749999999999994 0.375 -0.18749999999999997
v -0.1875 0.375 0.18750000000000003
vt 0.375 0.625
vt 0.375 1
vt 0 1
vt 0 0.625
vt 0.375 0.6875
vt 0 0.6875
vt 0 0.625
vt 0.375 0.625
vt 0.375 1
vt 0 1
vt 0 0.9375
vt 0.375 0.9375
vt 0.375 0.6875
vt 0 0.6875
vt 0 0.625
vt 0.375 0.625
vt 0.375 0.6875
vt 0 0.6875
vt 0 0.625
vt 0.375 0.625
vt 0 0.625
vt 0.375 0.625
vt 0.375 1
vt 0 1
vn 1 -2.220446049250313e-16 1.2246467991473527e-16
vn -2.2204460492503128e-16 -1 -1.2246467991473535e-16
vn 1.224646799147353e-16 1.2246467991473532e-16 -1
vn 2.2204460492503128e-16 1 1.2246467991473535e-16
vn -1.224646799147353e-16 -1.2246467991473532e-16 1
vn -1 2.220446049250313e-16 -1.2246467991473527e-16
usemtl m_86b9ec15-5464-05f6-56b1-268f1748de20
f 77/217/55 78/218/55 79/219/55 80/220/55
f 78/221/56 77/222/56 73/223/56 74/224/56
f 79/225/57 78/226/57 74/227/57 76/228/57
f 80/229/58 79/230/58 76/231/58 75/232/58
f 77/233/59 80/234/59 75/235/59 73/236/59
f 73/237/60 75/238/60 76/239/60 74/240/60
o plane
v 0.18749999999999994 0.8125 -1.1875
v 0.18749999999999997 0.8125 -1.5625
v 0.18750000000000003 1.1875 -1.1875
v 0.18750000000000006 1.1875 -1.5625
v 0.24999999999999994 0.8125 -1.1875
v 0.24999999999999997 0.8125 -1.5625
v 0.25000000000000006 1.1875 -1.5625
v 0.25 1.1875 -1.1875
vt 0.375 0.625
vt 0.375 1
vt 0 1
vt 0 0.625
vt 0.375 0.6875
vt 0 0.6875
vt 0 0.625
vt 0.375 0.625
vt 0.375 1
vt 0 1
vt 0 0.9375
vt 0.375 0.9375
vt 0.375 0.6875
vt 0 0.6875
vt 0 0.625
vt 0.375 0.625
vt 0.375 0.6875
vt 0 0.6875
vt 0 0.625
vt 0.375 0.625
vt 0 0.625
vt 0.375 0.625
vt 0.375 1
vt 0 1
vn 1 -2.220446049250313e-16 1.2246467991473527e-16
vn -2.2204460492503128e-16 -1 -1.2246467991473535e-16
vn 1.224646799147353e-16 1.2246467991473532e-16 -1
vn 2.2204460492503128e-16 1 1.2246467991473535e-16
vn -1.224646799147353e-16 -1.2246467991473532e-16 1
vn -1 2.220446049250313e-16 -1.2246467991473527e-16
usemtl m_86b9ec15-5464-05f6-56b1-268f1748de20
f 85/241/61 86/242/61 87/243/61 88/244/61
f 86/245/62 85/246/62 81/247/62 82/248/62
f 87/249/63 86/250/63 82/251/63 84/252/63
f 88/253/64 87/254/64 84/255/64 83/256/64
f 85/257/65 88/258/65 83/259/65 81/260/65
f 81/261/66 83/262/66 84/263/66 82/264/66
o plane
v -0.25000000000000006 0.8125 -1.1875
v -0.25 0.8125 -1.5625
v -0.24999999999999997 1.1875 -1.1875
v -0.24999999999999994 1.1875 -1.5625
v -0.18750000000000006 0.8125 -1.1875
v -0.18750000000000003 0.8125 -1.5625
v -0.18749999999999994 1.1875 -1.5625
v -0.1875 1.1875 -1.1875
vt 0.375 0.625
vt 0.375 1
vt 0 1
vt 0 0.625
vt 0.375 0.6875
vt 0 0.6875
vt 0 0.625
vt 0.375 0.625
vt 0.375 1
vt 0 1
vt 0 0.9375
vt 0.375 0.9375
vt 0.375 0.6875
vt 0 0.6875
vt 0 0.625
vt 0.375 0.625
vt 0.375 0.6875
vt 0 0.6875
vt 0 0.625
vt 0.375 0.625
vt 0 0.625
vt 0.375 0.625
vt 0.375 1
vt 0 1
vn 1 -2.220446049250313e-16 1.2246467991473527e-16
vn -2.2204460492503128e-16 -1 -1.2246467991473535e-16
vn 1.224646799147353e-16 1.2246467991473532e-16 -1
vn 2.2204460492503128e-16 1 1.2246467991473535e-16
vn -1.224646799147353e-16 -1.2246467991473532e-16 1
vn -1 2.220446049250313e-16 -1.2246467991473527e-16
usemtl m_86b9ec15-5464-05f6-56b1-268f1748de20
f 93/265/67 94/266/67 95/267/67 96/268/67
f 94/269/68 93/270/68 89/271/68 90/272/68
f 95/273/69 94/274/69 90/275/69 92/276/69
f 96/277/70 95/278/70 92/279/70 91/280/70
f 93/281/71 96/282/71 91/283/71 89/284/71
f 89/285/72 91/286/72 92/287/72 90/288/72